<?xml version="1.0" encoding="UTF-8"?>
<svg version="1.1" xmlns="http://www.w3.org/2000/svg" width="772" height="285">
<path d="M0 0 C11.70521368 2.79304734 22.08403346 16.97075602 30.21679688 25.25292969 C34.07744861 29.16649391 38.06097253 32.83859586 42.22753906 36.42382812 C44.39835226 38.35423722 46.31439465 40.46121353 48.25 42.625 C51.41679671 45.80327255 54.12077135 47.75690339 58.29296875 49.39404297 C59.35209473 49.81345154 60.4112207 50.23286011 61.50244141 50.66497803 C62.65663574 51.10553528 63.81083008 51.54609253 65 52 C66.8260376 52.70216644 66.8260376 52.70216644 68.68896484 53.41851807 C72.80536907 54.9909353 76.93316953 56.5322251 81.0625 58.0703125 C82.5860249 58.63888971 84.10954366 59.20748339 85.63305664 59.77609253 C88.80581979 60.95943693 91.97935114 62.1406953 95.15332031 63.32080078 C99.18968684 64.82204659 103.22296386 66.33141567 107.25556946 67.84272957 C110.39407446 69.01734237 113.5347373 70.18609949 116.67599487 71.3533287 C118.16290006 71.90692023 119.6490303 72.46259846 121.13430786 73.02054214 C125.73494753 74.74730646 130.35292562 76.40208693 135 78 C136.39935539 78.50662422 136.39935539 78.50662422 137.82698059 79.02348328 C148.42820763 82.3173833 159.86046114 81.27299824 170.82421875 81.06640625 C173.13962475 81.03109491 175.45503946 80.99635006 177.77046204 80.96214294 C182.60448664 80.88649229 187.43807859 80.79798016 192.27172852 80.70141602 C198.45152349 80.57985396 204.63109064 80.49982144 210.81166363 80.43052769 C215.58630005 80.37081333 220.36018177 80.28437854 225.13425636 80.19044304 C227.41256863 80.14968677 229.69106793 80.11823639 231.96964073 80.09646797 C235.15767219 80.0629391 238.3428654 79.99218494 241.5300293 79.91235352 C242.46064682 79.91051056 243.39126434 79.9086676 244.3500824 79.9067688 C251.36488027 79.67192095 255.57081991 77.33140363 261 73 C261.70379634 72.44823373 262.40759268 71.89646746 263.13271618 71.327981 C265.11700576 69.75074669 267.06028332 68.13168799 269 66.5 C270.48167597 65.26681309 271.96344971 64.03374366 273.4453125 62.80078125 C274.57114746 61.86032959 274.57114746 61.86032959 275.71972656 60.90087891 C279.42417562 57.81278037 283.15004663 54.75080602 286.875 51.6875 C288.28909163 50.52347289 289.703155 49.35941145 291.1171875 48.1953125 C291.77944336 47.65036133 292.44169922 47.10541016 293.12402344 46.54394531 C294.30464472 45.57228355 295.48501904 44.60032155 296.66503906 43.62792969 C299.76657752 41.07267369 302.87822755 38.53048971 306 36 C306.83402344 35.31808594 307.66804688 34.63617188 308.52734375 33.93359375 C309.32269531 33.29550781 310.11804688 32.65742187 310.9375 32 C311.97197266 31.1646875 311.97197266 31.1646875 313.02734375 30.3125 C316.430497 28.04822378 319.95094259 27.8447619 323.96266174 27.57603455 C324.96196213 27.50734665 325.96126251 27.43865875 326.99084473 27.3678894 C328.08127075 27.29667877 329.17169678 27.22546814 330.29516602 27.15209961 C331.44850937 27.07392502 332.60185272 26.99575043 333.79014587 26.91520691 C337.61116218 26.65723971 341.43251085 26.40462858 345.25390625 26.15234375 C347.91228161 25.97462472 350.57064184 25.79669002 353.22898865 25.61854553 C358.80816693 25.24526594 364.3875434 24.87506524 369.96704102 24.5065918 C376.39397826 24.08210677 382.8205503 23.65239927 389.2469545 23.21992487 C394.77904187 22.84777567 400.31131647 22.47851125 405.84375328 22.11159331 C409.14117905 21.89290144 412.43851219 21.67296462 415.73571968 21.45100212 C419.42327892 21.20329034 423.11112112 20.96030346 426.79907227 20.71850586 C427.87532867 20.645271 428.95158508 20.57203613 430.06045532 20.49658203 C440.22951825 19.83927993 449.51168443 19.39684181 459.38354492 22.203125 C460.25012222 22.43721069 461.11669952 22.67129639 462.00953674 22.91247559 C463.87009216 23.41703718 465.72893555 23.92794825 467.58614159 24.44470215 C470.5305268 25.26392781 473.47912538 26.06605948 476.42927551 26.86425781 C481.62589496 28.27319981 486.81834836 29.69684591 492.00958252 31.12548828 C500.32672263 33.41423131 508.64709525 35.69070132 516.97292519 37.94763184 C519.86903615 38.73666846 522.76145747 39.53829313 525.65385437 40.34082031 C527.43730083 40.82671654 529.22088833 41.31209551 531.00463867 41.796875 C531.80016144 42.02129272 532.5956842 42.24571045 533.41531372 42.47692871 C540.9044366 44.48703321 547.30306125 44.43748533 554.87890625 42.46875 C556.12994141 42.15292969 557.38097656 41.83710937 558.66992188 41.51171875 C559.96770461 41.17546836 561.26522944 40.83822102 562.5625 40.5 C565.12406895 39.83398569 567.68774521 39.17973835 570.25390625 38.53125 C571.38127197 38.23798828 572.5086377 37.94472656 573.67016602 37.64257812 C580.36253536 36.35111129 584.39906123 36.72236741 590.125 40.4375 C596.53405565 44.5576072 600.46276835 45.27125801 608.03076172 44.3190918 C608.71940811 44.23466827 609.4080545 44.15024475 610.11756897 44.06326294 C612.38929172 43.78283045 614.65941047 43.49110559 616.9296875 43.19921875 C618.52320041 43.00012101 620.11679953 42.80171222 621.71047974 42.60395813 C625.91090733 42.08078409 630.1100559 41.54795133 634.309021 41.01318359 C638.53077761 40.47734255 642.75373168 39.95112339 646.9765625 39.42382812 C654.61309773 38.46810722 662.24956525 37.51192239 669.88233948 36.52655029 C672.65520065 36.16887179 675.42941609 35.82673328 678.20542908 35.4944458 C679.54297148 35.32900241 680.88050153 35.16345911 682.21801758 34.99780273 C683.38754471 34.85712875 684.55707184 34.71645477 685.76203918 34.57151794 C690.85248562 33.67302607 695.22343402 31.68578067 699.8125 29.375 C701.52605325 28.54680377 703.24083514 27.72114318 704.95703125 26.8984375 C705.68897705 26.53411621 706.42092285 26.16979492 707.17504883 25.79443359 C709 25 709 25 711 25 C710.95875 25.78761719 710.9175 26.57523438 710.875 27.38671875 C711.10561038 33.47627407 711.82711931 37.26999359 716.30859375 41.44140625 C719.73156011 44.29687312 723.31680762 46.92460787 726.9453125 49.51171875 C729.8823769 51.63913612 732.64909428 53.93122051 735.4375 56.25 C736.73494141 57.30960938 736.73494141 57.30960938 738.05859375 58.390625 C740 60 740 60 741 61 C740.97679687 61.75023437 740.95359375 62.50046875 740.9296875 63.2734375 C740.76270771 72.74357681 744.15380585 78.66141138 749.22607422 86.46240234 C749.72123535 87.23793457 750.21639648 88.0134668 750.7265625 88.8125 C751.41613037 89.84310547 751.41613037 89.84310547 752.11962891 90.89453125 C753.27639458 93.66101688 752.91473316 95.18312389 752 98 C750.03125 99.88671875 750.03125 99.88671875 747.5 101.6875 C740.64031289 106.87409269 735.06960813 113.07100582 730 120 C726.41185964 119.40490215 723.14307386 118.36032027 719.72709656 117.12698364 C710.30651477 113.82404479 702.06387354 113.50636694 692.1875 114.125 C690.68075823 114.20396626 689.17391911 114.28109492 687.66699219 114.35644531 C685.44267252 114.46876736 683.21884647 114.58390207 680.99539185 114.71228027 C677.09386646 114.93158295 673.25159048 115.01126557 669.34765625 114.8515625 C656.19817488 114.43503869 647.37940059 120.07661973 636.63867188 127.2421875 C633.4694029 129.35346957 630.2491581 131.37381555 627.01977539 133.39135742 C624.7074513 134.83914042 622.40593845 136.30299671 620.10546875 137.76953125 C614.12501677 141.56791033 608.09569157 145.28614293 602.0625 149 C601.06379883 149.61593018 600.06509766 150.23186035 599.03613281 150.86645508 C596.92329106 152.16551263 594.80571376 153.45688869 592.68432617 154.74194336 C589.96414974 156.39438698 587.28305519 158.10010543 584.60668945 159.82250977 C571.69082819 168.01039095 558.36991737 173.63333454 544.0625 178.9375 C541.90232381 179.75408658 539.74281503 180.57244092 537.58398438 181.39257812 C521.29181614 187.56552456 521.29181614 187.56552456 515.84448242 189.45214844 C509.2827517 191.78308638 504.77081842 194.10138531 500.1875 199.375 C499.18393059 200.4688514 498.17738455 201.55997887 497.16796875 202.6484375 C496.65669434 203.20499023 496.14541992 203.76154297 495.61865234 204.33496094 C493.96353881 206.03750608 492.23508037 207.56453425 490.42578125 209.1015625 C484.28057713 214.37933757 478.6899961 220.24245731 473 226 C470.73221181 228.29470936 468.4616271 230.5865723 466.1875 232.875 C465.37853271 233.69206421 465.37853271 233.69206421 464.55322266 234.52563477 C460.98222571 238.10378471 457.28875811 241.42915091 453.29296875 244.53515625 C451.55883075 246.1741722 451.55883075 246.1741722 452 250 C453.9609042 252.04130853 453.9609042 252.04130853 456.5625 253.875 C457.46871094 254.56335938 458.37492187 255.25171875 459.30859375 255.9609375 C460.19675781 256.63382812 461.08492188 257.30671875 462 258 C464.36287329 259.96836896 466.67919383 261.98190768 469 264 C465.46285294 265.17904902 464.54940862 264.75104994 461.10546875 263.56640625 C459.67170898 263.0878418 459.67170898 263.0878418 458.20898438 262.59960938 C456.20634454 261.91221328 454.20373995 261.2247145 452.20117188 260.53710938 C445.21043176 257.89467043 445.21043176 257.89467043 438 258 C435.33175663 260.17445388 433.15842357 262.69214706 430.9375 265.3125 C429.74392815 266.68851233 428.54484226 268.05976432 427.33984375 269.42578125 C426.81769287 270.03848877 426.29554199 270.65119629 425.75756836 271.2824707 C421.71133082 275.23653114 417.03629983 276.7883528 411.6875 278.26171875 C410.99615967 278.45723831 410.30481934 278.65275787 409.5925293 278.85420227 C408.13789039 279.26358116 406.68221638 279.66929797 405.22558594 280.0715332 C403.00409553 280.6863665 400.78716744 281.31594816 398.5703125 281.94726562 C397.15129024 282.34463871 395.73202696 282.74115237 394.3125 283.13671875 C393.65403076 283.3241716 392.99556152 283.51162445 392.31713867 283.70475769 C388.79229901 284.66766749 385.65502553 285.20834694 382 285 C384.92367683 281.02408199 388.18390537 278.09793604 392.125 275.1875 C393.28790757 274.30357898 394.45066646 273.41946233 395.61328125 272.53515625 C397.65703802 270.99587472 399.71364029 269.48797557 401.79296875 267.99609375 C408.59150209 262.94726046 412.64822837 257.14428996 417 250 C404.77553152 244.62642886 392.15451095 240.29187665 379.59228516 235.78759766 C376.65676488 234.73385777 373.72286516 233.67569829 370.7890625 232.6171875 C369.89522858 232.29837616 369.00139465 231.97956482 368.08047485 231.65109253 C363.5521094 230.01579677 359.24942503 228.26676547 355 226 C354.86254204 218.71472811 354.86254204 218.71472811 355.50390625 215.37988281 C356.5673014 209.94646811 356.5673014 209.94646811 354.65258789 204.99145508 C352.55579547 203.13763064 350.40130012 201.59977358 348.0625 200.0625 C347.24144775 199.47605713 346.42039551 198.88961426 345.57446289 198.28540039 C343.88211998 197.07802739 342.17908166 195.88550925 340.46582031 194.70800781 C336.87641136 192.22172019 333.41321796 189.57899293 329.9375 186.9375 C328.64408412 185.96890937 327.34980484 185.00147065 326.0546875 184.03515625 C321.54607016 180.6631745 317.04832757 177.27724418 312.5625 173.875 C311.82185303 173.31804443 311.08120605 172.76108887 310.31811523 172.18725586 C309.63692627 171.6691333 308.9557373 171.15101074 308.25390625 170.6171875 C307.64877197 170.15940918 307.0436377 169.70163086 306.42016602 169.22998047 C305 168 305 168 304 166 C305.13385329 163.43233224 306.32532215 160.98218091 307.625 158.5 C308.17607422 157.42274658 308.17607422 157.42274658 308.73828125 156.32373047 C309.81886943 154.21231804 310.9085825 152.10583001 312 150 C313.0042547 148.04384511 314.00514698 146.08595306 315 144.125 C315.391875 143.36445313 315.78375 142.60390625 316.1875 141.8203125 C317.13586416 140.02784746 317.13586416 140.02784746 317 138 C316.21020752 137.87117432 315.42041504 137.74234863 314.60668945 137.60961914 C305.53555443 135.86184636 298.86945858 132.46373583 291.1875 127.4375 C290.14013672 126.77169922 289.09277344 126.10589844 288.01367188 125.41992188 C286.95083984 124.74380859 285.88800781 124.06769531 284.79296875 123.37109375 C283.74347046 122.71550476 282.69397217 122.05991577 281.6126709 121.38446045 C279.21500505 119.85198063 277.00880211 118.22313364 274.81811523 116.40911865 C263.37239937 107.44164777 252.10545401 107.78866761 238.03800392 108.21598244 C233.97600052 108.33514167 229.91826168 108.38567725 225.85490417 108.41545105 C215.02393 108.50768357 204.19543225 108.70865081 193.36705565 108.96036923 C184.18892417 109.17187498 175.01270148 109.3120004 165.83203125 109.33203125 C165.13725331 109.33384824 164.44247538 109.33566524 163.72664356 109.33753729 C136.25910351 109.35883864 111.65295104 103.84239803 85.66217041 94.89883423 C77.38057722 92.07200894 68.95133073 89.75660247 60.52164841 87.41821861 C56.7190787 86.35800976 52.92607148 85.26483688 49.1328125 84.171875 C47.30580811 83.6473877 47.30580811 83.6473877 45.44189453 83.11230469 C35.02491444 79.74588666 35.02491444 79.74588666 31.5234375 75.3046875 C30.94561523 74.59924805 30.36779297 73.89380859 29.77246094 73.16699219 C29.18754883 72.45188477 28.60263672 71.73677734 28 71 C26.79588139 69.67903969 25.57970338 68.36896864 24.3515625 67.0703125 C23.743125 66.42505615 23.1346875 65.7797998 22.5078125 65.11499023 C21.88648438 64.45829346 21.26515625 63.80159668 20.625 63.125 C16.36542043 58.60600952 12.13200088 54.07357659 8 49.4375 C5.52938922 46.66615944 3.02053655 43.97974634 0.375 41.375 C-19.20945084 22.06130193 -19.20945084 22.06130193 -19.375 12.625 C-19.27769889 8.08178678 -17.986 5.49788571 -15 2 C-10.28707755 -1.1419483 -5.51366603 -0.52948137 0 0 Z M429 148 C427.32459924 150.42872843 425.77158526 152.85203196 424.25 155.375 C423.80043945 156.10871826 423.35087891 156.84243652 422.88769531 157.59838867 C421.5851381 159.72829009 420.2921018 161.86374594 419 164 C418.4121875 164.95777344 417.824375 165.91554687 417.21875 166.90234375 C414.79493306 170.87972422 412.50923964 174.90022648 410.328125 179.015625 C408.06328235 183.1870242 405.64388208 187.2004699 403.0625 191.18359375 C402.39605469 192.21291016 401.72960937 193.24222656 401.04296875 194.30273438 C399.65915209 196.42608594 398.26560411 198.5431216 396.86328125 200.65429688 C395.87908203 202.18473633 395.87908203 202.18473633 394.875 203.74609375 C394.27429688 204.66060303 393.67359375 205.5751123 393.0546875 206.51733398 C391.73611799 208.90777443 391.73611799 208.90777443 392.58837891 211.14599609 C394.13758883 213.18070729 395.61564303 214.45338777 397.7109375 215.91796875 C398.45601563 216.44624268 399.20109375 216.9745166 399.96875 217.51879883 C400.7628125 218.06947021 401.556875 218.6201416 402.375 219.1875 C404.00855738 220.34009085 405.6413675 221.49374148 407.2734375 222.6484375 C408.07620117 223.21401367 408.87896484 223.77958984 409.70605469 224.36230469 C413.82102598 227.30006836 417.81394338 230.39495342 421.8125 233.48828125 C423.83105067 235.18950742 423.83105067 235.18950742 426 235 C426.29656494 233.94425781 426.59312988 232.88851562 426.89868164 231.80078125 C429.54362731 222.3890068 432.19761416 212.97984641 434.86186218 203.57351685 C436.30683903 198.46740093 437.73474155 193.35704662 439.1484375 188.2421875 C439.74438056 186.1196762 440.34069681 183.99726961 440.9375 181.875 C441.19474854 180.92496094 441.45199707 179.97492188 441.71704102 178.99609375 C443.92961663 171.21776721 447.4087178 167.24542747 453.75 162.1875 C454.73484375 161.39730469 455.7196875 160.60710937 456.734375 159.79296875 C457.48203125 159.20128906 458.2296875 158.60960937 459 158 C456.51341394 155.51341394 454.54683606 155.07782265 451.1875 154.0546875 C450.02992188 153.70019531 448.87234375 153.34570312 447.6796875 152.98046875 C446.46539062 152.61566406 445.25109375 152.25085938 444 151.875 C442.78570312 151.50246094 441.57140625 151.12992188 440.3203125 150.74609375 C434.75737765 148.81257144 434.75737765 148.81257144 429 148 Z " fill="#FCB812" transform="translate(19,0)"/>
<path d="M0 0 C3.71065916 1.36568245 6.85905541 3.06086333 10.1875 5.1875 C16.75820547 9.31269891 23.46280925 13.19469752 30.1875 17.0625 C31.30713135 17.70654785 32.4267627 18.3505957 33.58032227 19.01416016 C35.89717121 20.34588578 38.21426168 21.67718052 40.53173828 23.0078125 C46.06620926 26.1868413 51.59596977 29.37402038 57.125 32.5625 C58.19073242 33.17673828 59.25646484 33.79097656 60.35449219 34.42382812 C68.86461311 39.33321545 77.35240736 44.28034834 85.82275391 49.25805664 C92.14947838 52.96399662 98.54413531 56.52400557 105 60 C105 60.66 105 61.32 105 62 C103.3034668 63.38867188 103.3034668 63.38867188 100.94921875 64.96875 C100.10552734 65.53980469 99.26183594 66.11085938 98.39257812 66.69921875 C97.49990234 67.29347656 96.60722656 67.88773437 95.6875 68.5 C94.80642578 69.09425781 93.92535156 69.68851562 93.01757812 70.30078125 C90.68277388 71.8738889 88.34306675 73.43923601 86 75 C82.68485356 77.21009763 82.7100966 77.37839783 81.875 80.9375 C80.96032061 83.61862371 80.53529803 84.70648352 78.01953125 86.0859375 C75.69419783 86.81041324 73.36679349 87.42660158 71 88 C64.67667559 90.23176156 62.28327207 94.44638022 59 100 C60.134375 99.95359375 61.26875 99.9071875 62.4375 99.859375 C77.41541264 99.43110264 77.41541264 99.43110264 84 104 C84.66 104.66 85.32 105.32 86 106 C86.60328125 105.59007812 87.2065625 105.18015625 87.828125 104.7578125 C88.62734375 104.21898437 89.4265625 103.68015625 90.25 103.125 C91.03890625 102.59132813 91.8278125 102.05765625 92.640625 101.5078125 C95 100 95 100 97.234375 98.9296875 C99.18102714 98.12382792 99.18102714 98.12382792 100 96 C98.515 95.505 98.515 95.505 97 95 C94.93585083 92.85940086 94.07953909 91.51700407 93.625 88.5625 C94.08301438 85.43273506 95.15736422 83.55134184 97 81 C99.83129669 79.58435166 101.85081562 79.75775505 105 80 C109.10196454 81.39466794 111.20442014 82.89391433 113.375 86.5625 C115 90 115 90 115 92 C122.57690911 89.5349789 130.11389008 87.06583836 137.484375 84.02734375 C140.43042295 82.82422168 143.40063409 81.6937458 146.375 80.5625 C147.4784375 80.13453125 148.581875 79.7065625 149.71875 79.265625 C151.7946796 78.4649093 153.87738753 77.68136979 155.96875 76.921875 C163.31326748 74.11832263 169.4100839 70.27422757 175.83203125 65.8359375 C181.34427904 62.03744634 187.04795895 58.54005596 192.74243164 55.02319336 C193.51321045 54.54245361 194.28398926 54.06171387 195.078125 53.56640625 C196.10534668 52.93134155 196.10534668 52.93134155 197.15332031 52.28344727 C200.2906077 50.10302424 201.78959125 48.51550144 203.25 44.9375 C205 42 205 42 208.4375 40.5625 C212 40 212 40 213.95703125 40.6171875 C216.81571127 41.15284838 217.89256827 40.17341168 220.25 38.5625 C220.95640625 38.08941406 221.6628125 37.61632812 222.390625 37.12890625 C222.92171875 36.75636719 223.4528125 36.38382813 224 36 C223.505 35.29875 223.01 34.5975 222.5 33.875 C220.78565747 30.58917682 220.59383771 28.65546065 221 25 C221.66 24.34 222.32 23.68 223 23 C226.22986927 23.16563432 227.58162582 23.55277243 229.8125 25.9375 C231 28 231 28 231 30 C231.94601074 29.51644043 232.89202148 29.03288086 233.86669922 28.53466797 C238.57135678 26.5281117 243.07773663 26.51513754 248.1328125 26.4453125 C250.0924639 26.38725564 252.05209896 26.32864536 254.01171875 26.26953125 C257.07722406 26.19322591 260.14258398 26.12466865 263.20849609 26.06689453 C266.18422977 26.00550486 269.15796544 25.9145959 272.1328125 25.8203125 C273.04749298 25.81178253 273.96217346 25.80325256 274.90457153 25.79446411 C279.46244389 25.63518923 281.35921524 25.54781923 284.93310547 22.49243164 C285.95621826 21.25867798 285.95621826 21.25867798 287 20 C289.9375 19.30078125 289.9375 19.30078125 293 19.3125 C294.5159375 19.27576172 294.5159375 19.27576172 296.0625 19.23828125 C299.53230093 20.13803016 300.44439381 21.53860825 302.53076172 24.34057617 C305.41029173 27.59284694 309.29001315 29.4417263 313.0625 31.5 C313.86494141 31.96664062 314.66738281 32.43328125 315.49414062 32.9140625 C316.65913086 33.55988281 316.65913086 33.55988281 317.84765625 34.21875 C318.54898682 34.60998047 319.25031738 35.00121094 319.97290039 35.40429688 C322.03688761 36.24474488 322.03688761 36.24474488 324.07202148 35.11132812 C325.02637085 34.5612207 325.02637085 34.5612207 326 34 C326.99 34 327.98 34 329 34 C324.05 39.94 324.05 39.94 319 46 C315.3352826 45.26705652 312.20501538 44.38268422 308.72709656 43.12698364 C299.30651477 39.82404479 291.06387354 39.50636694 281.1875 40.125 C279.68075823 40.20396626 278.17391911 40.28109492 276.66699219 40.35644531 C274.44267252 40.46876736 272.21884647 40.58390207 269.99539185 40.71228027 C266.09386646 40.93158295 262.25159048 41.01126557 258.34765625 40.8515625 C245.19817488 40.43503869 236.37940059 46.07661973 225.63867188 53.2421875 C222.4694029 55.35346957 219.2491581 57.37381555 216.01977539 59.39135742 C213.7074513 60.83914042 211.40593845 62.30299671 209.10546875 63.76953125 C203.12501677 67.56791033 197.09569157 71.28614293 191.0625 75 C190.06379883 75.61593018 189.06509766 76.23186035 188.03613281 76.86645508 C185.92329106 78.16551263 183.80571376 79.45688869 181.68432617 80.74194336 C178.96414974 82.39438698 176.28305519 84.10010543 173.60668945 85.82250977 C160.69082819 94.01039095 147.36991737 99.63333454 133.0625 104.9375 C130.90232381 105.75408658 128.74281503 106.57244092 126.58398438 107.39257812 C110.29181614 113.56552456 110.29181614 113.56552456 104.84448242 115.45214844 C98.2827517 117.78308638 93.77081842 120.10138531 89.1875 125.375 C88.18393059 126.4688514 87.17738455 127.55997887 86.16796875 128.6484375 C85.65669434 129.20499023 85.14541992 129.76154297 84.61865234 130.33496094 C82.96353881 132.03750608 81.23508037 133.56453425 79.42578125 135.1015625 C73.28057713 140.37933757 67.6899961 146.24245731 62 152 C42.99235112 171.23329084 42.99235112 171.23329084 37 174 C36.33886719 172.22607422 36.33886719 172.22607422 36 170 C36.99707031 168.20751953 36.99707031 168.20751953 38.578125 166.3828125 C39.1568335 165.70025391 39.73554199 165.01769531 40.33178711 164.31445312 C40.96479736 163.59193359 41.59780762 162.86941406 42.25 162.125 C43.54952347 160.59749858 44.84768303 159.06883585 46.14453125 157.5390625 C46.79631348 156.77625977 47.4480957 156.01345703 48.11962891 155.22753906 C50.80519791 152.04614052 53.38137237 148.78573368 55.9375 145.5 C56.38101807 144.93071777 56.82453613 144.36143555 57.28149414 143.77490234 C57.70938232 143.22527832 58.13727051 142.6756543 58.578125 142.109375 C60.11863645 140.13155708 61.66961299 138.16181311 63.234375 136.203125 C63.87890625 135.39359375 64.5234375 134.5840625 65.1875 133.75 C65.73792969 133.06421875 66.28835938 132.3784375 66.85546875 131.671875 C68.18829708 130.06262972 68.18829708 130.06262972 68 128 C67.27554688 127.97421875 66.55109375 127.9484375 65.8046875 127.921875 C59.8757901 127.57404635 55.49615717 127.26558501 51 123 C49.625 119.75 49.625 119.75 49 117 C45.40576523 120.39455506 42.15353498 123.52064724 40 128 C40.22939002 131.98999614 41.26394395 135.57009901 43.08984375 139.1171875 C44 141 44 141 43.9375 143.5 C42.6574313 146.91351653 41.05473932 148.04765972 38 150 C34.94921875 149.96875 34.94921875 149.96875 31.6875 149.5 C28.25481483 149.20473803 28.25481483 149.20473803 25 150 C22.19130169 152.9203591 20.41124636 155.81730867 18.48828125 159.375 C17.99714844 160.24125 17.50601562 161.1075 17 162 C16.34 162 15.68 162 15 162 C15.73125603 155.32031514 17.48734932 148.97249395 19.23828125 142.49609375 C19.56032028 141.29944595 19.88235931 140.10279816 20.2141571 138.86988831 C20.89525381 136.34695785 21.57872036 133.82466612 22.2644043 131.30297852 C22.96483337 128.72604504 23.6579648 126.1473244 24.34448242 123.56665039 C25.33980505 119.83175042 26.34971939 116.10107995 27.36328125 112.37109375 C27.81976799 110.6458976 27.81976799 110.6458976 28.28547668 108.885849 C30.65452608 100.2799924 33.32036228 95.14917514 40.125 89.1875 C40.99382812 88.41792969 41.86265625 87.64835937 42.7578125 86.85546875 C45 85 45 85 47 84 C40.23346119 81.38725554 33.383544 79.20007707 26.45117188 77.07421875 C25.63326172 76.82027344 24.81535156 76.56632812 23.97265625 76.3046875 C22.86289429 75.9641333 22.86289429 75.9641333 21.73071289 75.61669922 C20 75 20 75 19 74 C18.95919217 72.00041636 18.95745644 69.99954746 19 68 C18.113125 68.515625 17.22625 69.03125 16.3125 69.5625 C13 71 13 71 10.375 71.25 C6.93661318 69.44032273 6.05022343 67.02919607 4.66796875 63.48046875 C3.57692098 59.4289171 3.84677172 57.07021745 5 53 C7.5 50.0625 7.5 50.0625 10 48 C10.495 47.505 10.495 47.505 11 47 C15.57071175 47.34495938 18.58325171 47.85659158 22 51 C21.98839844 50.38511719 21.97679687 49.77023438 21.96484375 49.13671875 C21.95582031 48.32847656 21.94679688 47.52023438 21.9375 46.6875 C21.92589844 45.88699219 21.91429687 45.08648437 21.90234375 44.26171875 C22 42 22 42 23 39 C23.06970052 36.60509014 23.08448003 34.20832309 23.0625 31.8125 C23.05347656 30.54019531 23.04445313 29.26789063 23.03515625 27.95703125 C23.02355469 26.98121094 23.01195312 26.00539063 23 25 C22.34 25 21.68 25 21 25 C19.64902626 23.48848454 18.37072655 21.91186687 17.125 20.3125 C12.91262865 15.02813855 8.45118876 10.06466068 3.81103516 5.15356445 C0 1.09791459 0 1.09791459 0 0 Z " fill="#CB7F32" transform="translate(430,74)"/>
<path d="M0 0 C5.92115305 0.62167011 9.82427614 3.97430215 14 8 C16.40626292 12.61200393 16.56584808 17.85872727 17 23 C20.33200185 23.41771804 20.33200185 23.41771804 24 23 C25.38232443 21.37373596 26.71937515 19.7074998 28 18 C30.375 17.25 30.375 17.25 33 18 C34.66081804 19.6951502 36.07450056 21.45395506 37.47265625 23.37109375 C39.25849694 25.27568599 40.45742918 25.61177951 43 26 C43 24.02 43 22.04 43 20 C43.99 19.505 43.99 19.505 45 19 C45.28875 18.195625 45.5775 17.39125 45.875 16.5625 C47 14 47 14 48.625 12.6875 C52.88788976 11.4535056 57.11211024 11.4535056 61.375 12.6875 C63 14 63 14 63.9375 16.5 C64.288125 17.325 64.63875 18.15 65 19 C65.825 19.309375 66.65 19.61875 67.5 19.9375 C70 21 70 21 71.3125 23.6875 C72.06085674 27.29321885 72.3462613 30.32963019 72 34 C69.3287241 37.50866647 66.35016082 37.80118341 62.2109375 38.578125 C59.88502765 38.97640647 59.88502765 38.97640647 57.25 39.875 C55 40 55 40 52.1875 38.1875 C51.465625 37.465625 50.74375 36.74375 50 36 C50 35.34 50 34.68 50 34 C49.34 34 48.68 34 48 34 C47.54625 33.030625 47.0925 32.06125 46.625 31.0625 C45.34213779 27.92920418 45.34213779 27.92920418 43 27 C42.814375 28.8871875 42.814375 28.8871875 42.625 30.8125 C41.0625 44.875 41.0625 44.875 39 49 C38.51846574 52.93626257 38.76880471 54.63037296 40.8984375 58.03515625 C41.71570313 59.03417969 42.53296875 60.03320312 43.375 61.0625 C50.19785459 69.47735399 50.19785459 69.47735399 49.75 75.1875 C49 78 49 78 47 80 C44.06640625 80.23046875 44.06640625 80.23046875 40.5625 80.1875 C39.40878906 80.18105469 38.25507813 80.17460937 37.06640625 80.16796875 C34 80 34 80 31 79 C30.73445313 80.19496094 30.46890625 81.38992187 30.1953125 82.62109375 C28.46354167 90.4140625 26.73177083 98.20703125 25 106 C26.23089355 106.38792725 27.46178711 106.77585449 28.72998047 107.17553711 C34.73706504 109.18119079 40.51025548 111.68050222 46.3203125 114.19140625 C48.08385574 114.9485215 48.08385574 114.9485215 49.88302612 115.72093201 C53.00236214 117.06023676 56.11977532 118.40396071 59.23681641 119.74859619 C62.32721493 121.08071619 65.41959058 122.40822934 68.51171875 123.73632812 C77.87616927 127.7613716 87.23802285 131.79213935 96.58105469 135.86669922 C98.12924393 136.54175758 98.12924393 136.54175758 99.70870972 137.23045349 C101.6106761 138.06069924 103.51204059 138.89232602 105.41262817 139.72572327 C110.58764832 141.98626054 115.78700844 144.10991274 121.07766724 146.08692932 C123 147 123 147 124 149 C117.96038269 147.40825039 112.01563189 145.75637953 106.16796875 143.55078125 C103.08232861 142.76686186 101.19242225 142.45877854 98 143 C95.30937552 145.14382139 93.15659543 147.69430399 90.9375 150.3125 C89.74392815 151.68851233 88.54484226 153.05976432 87.33984375 154.42578125 C86.81769287 155.03848877 86.29554199 155.65119629 85.75756836 156.2824707 C81.71133082 160.23653114 77.03629983 161.7883528 71.6875 163.26171875 C70.99615967 163.45723831 70.30481934 163.65275787 69.5925293 163.85420227 C68.13789039 164.26358116 66.68221638 164.66929797 65.22558594 165.0715332 C63.00409553 165.6863665 60.78716744 166.31594816 58.5703125 166.94726562 C57.15129024 167.34463871 55.73202696 167.74115237 54.3125 168.13671875 C53.32479614 168.41789803 53.32479614 168.41789803 52.31713867 168.70475769 C48.79229901 169.66766749 45.65502553 170.20834694 42 170 C44.92367683 166.02408199 48.18390537 163.09793604 52.125 160.1875 C53.28790757 159.30357898 54.45066646 158.41946233 55.61328125 157.53515625 C57.65703802 155.99587472 59.71364029 154.48797557 61.79296875 152.99609375 C68.59150209 147.94726046 72.64822837 142.14428996 77 135 C64.77553152 129.62642886 52.15451095 125.29187665 39.59228516 120.78759766 C36.65676488 119.73385777 33.72286516 118.67569829 30.7890625 117.6171875 C29.44831161 117.13897049 29.44831161 117.13897049 28.08047485 116.65109253 C23.5521094 115.01579677 19.24942503 113.26676547 15 111 C14.86254204 103.71472811 14.86254204 103.71472811 15.50390625 100.37988281 C16.5673014 94.94646811 16.5673014 94.94646811 14.65258789 89.99145508 C12.55579547 88.13763064 10.40130012 86.59977358 8.0625 85.0625 C6.83092163 84.18283569 6.83092163 84.18283569 5.57446289 83.28540039 C3.88211998 82.07802739 2.17908166 80.88550925 0.46582031 79.70800781 C-3.12358864 77.22172019 -6.58678204 74.57899293 -10.0625 71.9375 C-11.35591588 70.96890937 -12.65019516 70.00147065 -13.9453125 69.03515625 C-18.45392984 65.6631745 -22.95167243 62.27724418 -27.4375 58.875 C-28.17814697 58.31804443 -28.91879395 57.76108887 -29.68188477 57.18725586 C-30.36307373 56.6691333 -31.0442627 56.15101074 -31.74609375 55.6171875 C-32.35122803 55.15940918 -32.9563623 54.70163086 -33.57983398 54.22998047 C-35 53 -35 53 -36 51 C-34.86614671 48.43233224 -33.67467785 45.98218091 -32.375 43.5 C-31.82392578 42.42274658 -31.82392578 42.42274658 -31.26171875 41.32373047 C-30.18113057 39.21231804 -29.0914175 37.10583001 -28 35 C-26.9957453 33.04384511 -25.99485302 31.08595306 -25 29.125 C-24.608125 28.36445313 -24.21625 27.60390625 -23.8125 26.8203125 C-22.86413584 25.02784746 -22.86413584 25.02784746 -23 23 C-24.65 22.67 -26.3 22.34 -28 22 C-28 21.67 -28 21.34 -28 21 C-20.92278069 20.87890689 -14.02804699 21.14626761 -7 22 C-7.32613281 21.44054687 -7.65226562 20.88109375 -7.98828125 20.3046875 C-10.39851187 14.81420075 -9.202142 7.71017452 -8 2 C-6.865625 1.855625 -5.73125 1.71125 -4.5625 1.5625 C-1.19222799 1.38828522 -1.19222799 1.38828522 0 0 Z " fill="#CB7F32" transform="translate(359,115)"/>
<path d="M0 0 C3.61361275 1.58998961 6.40104391 3.80668672 9.4375 6.3125 C10.36433594 7.07175781 11.29117187 7.83101562 12.24609375 8.61328125 C14.96119355 10.96636775 17.47316597 13.44785545 20 16 C20.99 16.825 21.98 17.65 23 18.5 C26.44967941 21.37473284 29.56294303 24.46668084 32.6328125 27.7421875 C34.69855336 29.89436103 36.83086073 31.9519621 39 34 C39.85722656 34.83402344 40.71445312 35.66804688 41.59765625 36.52734375 C50.74242828 44.53956167 60.40252047 46.69330442 72.08398438 49.31005859 C76.55406029 50.36769712 80.92674234 51.70234084 85.3125 53.0625 C94.4973752 55.87515505 103.73349775 58.47073731 113 61 C112.96326172 59.57300781 112.96326172 59.57300781 112.92578125 58.1171875 C113 55 113 55 114.1875 53.125 C116.74588643 51.53703601 118.03351831 51.43495587 121 52 C123.83107902 54.05896656 125.65640027 55.64315727 126.53515625 59.11328125 C126.78143419 61.06616123 126.90004365 63.03419183 127 65 C131.45304644 66.42497486 135.27055688 67.53743672 140 67 C140.62648437 66.24396484 140.62648437 66.24396484 141.265625 65.47265625 C143 64 143 64 146.03125 63.8203125 C147.1759375 63.92085937 148.320625 64.02140625 149.5 64.125 C150.6446875 64.21007812 151.789375 64.29515625 152.96875 64.3828125 C156.1201692 65.02446744 157.13091385 65.46157894 159 68 C159.33 68.66 159.66 69.32 160 70 C171.55 70.33 183.1 70.66 195 71 C194.67 68.69 194.34 66.38 194 64 C196.26318845 60.07807716 199.65344055 57.42975301 203.9375 56.0625 C204.618125 56.041875 205.29875 56.02125 206 56 C208.55455332 59.29963137 209.18237159 61.61850552 209.09375 65.69140625 C209.08021484 66.49908447 209.06667969 67.3067627 209.05273438 68.13891602 C209.02663086 69.06015259 209.02663086 69.06015259 209 70 C213.34219879 69.93103387 217.68347274 69.84302621 222.02490234 69.73754883 C223.50103138 69.70434645 224.97728594 69.67629983 226.45361328 69.65356445 C228.57899332 69.61993049 230.70322804 69.56761481 232.828125 69.51171875 C234.1059082 69.48553467 235.38369141 69.45935059 236.70019531 69.43237305 C240.20921043 68.97258718 241.36191579 68.21159151 244 66 C248.38939738 65.61496514 250.28986601 65.52657734 254 68 C256.12337771 68.36433373 256.12337771 68.36433373 258.44921875 68.4140625 C259.29677734 68.45273438 260.14433594 68.49140625 261.01757812 68.53125 C261.89865234 68.5621875 262.77972656 68.593125 263.6875 68.625 C264.58017578 68.66367188 265.47285156 68.70234375 266.39257812 68.7421875 C268.5948462 68.83640218 270.79710722 68.92201588 273 69 C272.94070313 68.22914062 272.88140625 67.45828125 272.8203125 66.6640625 C273 64 273 64 275.875 61.375 C276.90625 60.59125 277.9375 59.8075 279 59 C279.66 58.01 280.32 57.02 281 56 C282.8125 56.125 282.8125 56.125 285 57 C288.26668295 61.66668993 288.97071876 66.46179404 288 72 C286 74.9375 286 74.9375 284 77 C284 77.66 284 78.32 284 79 C285.91035013 80.78206021 285.91035013 80.78206021 288.3125 82.5625 C289.11300781 83.18253906 289.91351563 83.80257812 290.73828125 84.44140625 C292.99968203 86.15429792 292.99968203 86.15429792 296 87 C296.33 84.69 296.66 82.38 297 80 C296.236875 80.061875 295.47375 80.12375 294.6875 80.1875 C292 80 292 80 290.1875 78.875 C288.44801218 76.12844028 288.60230872 74.18153026 289 71 C290.125 69.125 290.125 69.125 292 68 C294.9375 67.625 294.9375 67.625 298 68 C298.59425781 68.50917969 299.18851562 69.01835938 299.80078125 69.54296875 C302.82115371 71.54403256 304.70238098 71.11167184 308.25 70.6875 C309.32765625 70.56761719 310.4053125 70.44773437 311.515625 70.32421875 C312.33546875 70.21722656 313.1553125 70.11023438 314 70 C314.50921328 72.18537367 315.00694437 74.37342431 315.5 76.5625 C315.91765625 78.38974609 315.91765625 78.38974609 316.34375 80.25390625 C317.97864078 89.58640777 317.97864078 89.58640777 315.3125 93.4375 C312.49601901 95.34052769 311.34191259 95.47741608 308 95 C305.98177598 94.39072482 303.97583715 93.73519522 302 93 C302 93.66 302 94.32 302 95 C302.61875 95.309375 303.2375 95.61875 303.875 95.9375 C305.25 96.625 306.625 97.3125 308 98 C308 98.66 308 99.32 308 100 C309.32 100.66 310.64 101.32 312 102 C311.67 102.66 311.34 103.32 311 104 C310.53440674 103.70456299 310.06881348 103.40912598 309.58911133 103.10473633 C307.33097285 101.67283317 305.07172666 100.24268558 302.8125 98.8125 C302.08224609 98.34908203 301.35199219 97.88566406 300.59960938 97.40820312 C298.91856698 96.34468651 297.22530691 95.30035656 295.52351379 94.27037048 C292.82586934 92.591641 290.32269138 90.73848264 287.79875183 88.80970764 C274.20029313 78.86956049 263.09442993 77.2909909 246.50935364 77.89879227 C242.46739735 78.04358888 238.43203028 78.1014761 234.38806152 78.13534546 C224.3279491 78.23565196 214.27173198 78.47448203 204.21466064 78.73577881 C194.36221767 78.98998533 184.51202655 79.17738948 174.65625 79.2265625 C173.96509676 79.23055431 173.27394353 79.23454613 172.56184626 79.23865891 C145.13551832 79.35174415 120.61622331 73.83803334 94.66720581 64.90185547 C86.38426711 62.07243732 77.95313329 59.75658521 69.52133369 57.41802979 C65.7188352 56.35800119 61.92595195 55.26482814 58.1328125 54.171875 C56.91480957 53.8222168 55.69680664 53.47255859 54.44189453 53.11230469 C44.02491444 49.74588666 44.02491444 49.74588666 40.5234375 45.3046875 C39.94561523 44.59924805 39.36779297 43.89380859 38.77246094 43.16699219 C37.89509277 42.09433105 37.89509277 42.09433105 37 41 C35.79588139 39.67903969 34.57970338 38.36896864 33.3515625 37.0703125 C32.743125 36.42505615 32.1346875 35.7797998 31.5078125 35.11499023 C30.88648437 34.45829346 30.26515625 33.80159668 29.625 33.125 C24.64770839 27.84458839 19.74170471 22.51870286 14.91796875 17.09765625 C13.10817015 15.11830421 11.23752064 13.24156014 9.3125 11.375 C5.76484058 7.90194089 2.86671932 4.0428093 0 0 Z " fill="#CB8132" transform="translate(10,30)"/>
<path d="M0 0 C4.21013667 0.02271656 6.24247339 1.30497339 9.25 4.3125 C9.806875 3.796875 10.36375 3.28125 10.9375 2.75 C13.25 1.3125 13.25 1.3125 16 1.625 C16.7425 1.851875 17.485 2.07875 18.25 2.3125 C20.61881847 8.70830987 23.10881237 15.43774833 23.25 22.3125 C21.5625 25.625 21.5625 25.625 18.25 27.3125 C12.31297948 27.19555869 6.17534777 25.68247479 1.25 22.3125 C0.01446725 19.75318217 0.26599937 18.15890607 0.5625 15.3125 C0.459375 14.3225 0.35625 13.3325 0.25 12.3125 C-2.63509913 9.88827814 -2.63509913 9.88827814 -5.75 8.3125 C-4.74234303 0.39519525 -4.74234303 0.39519525 0 0 Z " fill="#CC8132" transform="translate(585.75,97.6875)"/>
<path d="M0 0 C5.25453084 1.93023582 8.75272792 4.06246289 11.5 9 C13.66597977 13.84424522 12.76268505 17.02444486 11.125 21.9375 C10.0625 24.125 10.0625 24.125 8.0625 25.125 C4.64703469 25.59378936 2.14372359 25.77199725 -0.8828125 23.9609375 C-5.93197952 19.84132424 -7.65014011 16.711239 -8.375 10.1875 C-8.28533495 7.04324545 -7.65951973 5.11625718 -5.8125 2.5625 C-2.9375 0.125 -2.9375 0.125 0 0 Z " fill="#CC8231" transform="translate(562.9375,122.875)"/>
<path d="M0 0 C3.2885634 0.9792611 4.34780072 2.13565968 6.32421875 4.91015625 C8.33212003 8.62827577 9.72169975 11.54386689 8.63671875 15.78515625 C6.0180832 18.33488034 3.47369912 20.66543451 -0.28125 20.91015625 C-5.01012785 20.6497017 -7.89723566 19.85976064 -11.42578125 16.59765625 C-13.5447087 14.17178137 -14.33539021 12.89028403 -15.17578125 9.72265625 C-13.0389159 1.99706615 -7.74308997 -0.41197887 0 0 Z " fill="#CC8132" transform="translate(443.36328125,93.21484375)"/>
<path d="M0 0 C2.57285724 2.172635 4.48996919 3.97993838 6 7 C6.35382027 12.39575915 6.39538538 15.55988065 3 20 C2.34 20.66 1.68 21.32 1 22 C-2.3812169 21.88224618 -3.74245172 21.23867039 -6.23828125 18.92578125 C-6.92277344 18.06339844 -7.60726562 17.20101562 -8.3125 16.3125 C-9.00988281 15.46300781 -9.70726562 14.61351563 -10.42578125 13.73828125 C-12.28932668 10.49672952 -12.51015435 8.68220316 -12 5 C-8.31740373 0.96668028 -5.51753081 -1.17394272 0 0 Z " fill="#CB8132" transform="translate(541,94)"/>
<path d="M0 0 C3.6614671 0.83816717 5.33598966 2.6369086 7.96875 5.28125 C8.86335938 6.15136719 9.75796875 7.02148438 10.6796875 7.91796875 C12.59375 10.59375 12.59375 10.59375 12.52734375 13.24609375 C11.19979529 16.58440599 9.39270376 18.38062377 6.59375 20.59375 C3.02742279 20.2248196 0.02651158 18.39344313 -3.09375 16.71875 C-4.06699219 16.20570312 -5.04023438 15.69265625 -6.04296875 15.1640625 C-8.40625 13.59375 -8.40625 13.59375 -9.40625 10.59375 C-8.1484375 8.11328125 -8.1484375 8.11328125 -6.28125 5.40625 C-5.68054688 4.50519531 -5.07984375 3.60414062 -4.4609375 2.67578125 C-2.40625 0.59375 -2.40625 0.59375 0 0 Z " fill="#CB8132" transform="translate(404.40625,102.40625)"/>
<path d="M0 0 C2.57683022 4.12292835 3.35213519 6.81767126 2.5 11.625 C1.32791769 15.85028439 -0.36639163 18.40456545 -4 21 C-6.125 21.1875 -6.125 21.1875 -8 20 C-9.6875 17 -9.6875 17 -11 14 C-11.33 13.67 -11.66 13.34 -12 13 C-12.26130225 9.0478034 -12.15624232 5.35350151 -9.51171875 2.2578125 C-6.16994754 -0.27535026 -4.11437461 -1.75478503 0 0 Z " fill="#CB8132" transform="translate(576,88)"/>
<path d="M0 0 C3.26839346 1.63419673 3.80455325 3.59297678 5 7 C5.6643022 11.1173582 6.27192649 15.20410379 3.7578125 18.75390625 C1.14275902 21.03719922 -0.50269836 22 -4 22 C-7.17796947 18.55346972 -8.86050908 14.91444049 -9.5625 10.3125 C-8.90010822 6.41174843 -7.77541816 4.77541816 -5 2 C-2 0 -2 0 0 0 Z " fill="#CB8032" transform="translate(495,86)"/>
<path d="M0 0 C2.3828125 -0.29296875 2.3828125 -0.29296875 5.125 -0.1875 C6.03507812 -0.16042969 6.94515625 -0.13335937 7.8828125 -0.10546875 C8.58148438 -0.07066406 9.28015625 -0.03585938 10 0 C8.70422878 2.69121715 7.37263497 5.34793368 6 8 C5.54109375 8.91007813 5.0821875 9.82015625 4.609375 10.7578125 C3.20877662 13.34523372 1.84788966 15.70952935 0 18 C-3.1875 18.875 -3.1875 18.875 -6 18 C-7.9375 16.375 -7.9375 16.375 -9 14 C-9.0625 11.0625 -9.0625 11.0625 -8 8 C-5.0625 5.3125 -5.0625 5.3125 -2 3 C-1.34 2.01 -0.68 1.02 0 0 Z " fill="#CB8132" transform="translate(433,156)"/>
<path d="M0 0 C0.99773438 0.02320313 1.99546875 0.04640625 3.0234375 0.0703125 C4.52777344 0.09738281 4.52777344 0.09738281 6.0625 0.125 C6.83335937 0.14820313 7.60421875 0.17140625 8.3984375 0.1953125 C9.12171787 3.46453977 9.55751171 6.534255 9.5859375 9.8828125 C9.60011719 10.64980469 9.61429688 11.41679687 9.62890625 12.20703125 C9.3984375 14.1953125 9.3984375 14.1953125 7.3984375 16.1953125 C5.01171875 16.546875 5.01171875 16.546875 2.3984375 16.1953125 C-1.55458098 13.1827607 -4.34419891 9.73949405 -5.1640625 4.8203125 C-4.40611816 1.28323893 -3.66182762 0.27491198 0 0 Z " fill="#CB8132" transform="translate(540.6015625,131.8046875)"/>
<path d="M0 0 C3.61458977 0.35437155 5.39578951 0.99936845 8.1875 3.3125 C9.25 5.625 9.25 5.625 9.1875 8.3125 C7.25 11.625 7.25 11.625 5.1875 14.3125 C1.71058771 14.01447895 0.17237704 13.3007377 -2.625 11.125 C-4.8125 8.3125 -4.8125 8.3125 -5.25 5.125 C-4.65296824 1.28693867 -3.87680471 0.43075608 0 0 Z " fill="#CC8131" transform="translate(408.8125,82.6875)"/>
<path d="M0 0 C2.77208643 1.5939497 4.57486401 2.87065201 6.5 5.4375 C7.0625 8.5 7.0625 8.5 6.5 11.4375 C4.12416173 13.48336073 2.59210713 14.40440584 -0.5625 14.5 C-3.65452845 12.80437149 -4.85344701 10.49538413 -6.5 7.4375 C-7 4.75 -7 4.75 -6.5 2.4375 C-4.26442523 -0.12927103 -3.37001305 -0.75825294 0 0 Z " fill="#CC8132" transform="translate(692.5,82.5625)"/>
<path d="M0 0 C6.10643016 0.45232816 6.10643016 0.45232816 8.9375 2.1875 C10.5681027 4.96911637 10.44339036 6.83292601 10 10 C8 12.875 8 12.875 6 15 C3.625 14.6875 3.625 14.6875 1 14 C-1.18841354 10.71737969 -1.24854665 9.68209102 -1.1875 5.875 C-1.18105469 4.98554687 -1.17460937 4.09609375 -1.16796875 3.1796875 C-1 1 -1 1 0 0 Z " fill="#CC8132" transform="translate(339,96)"/>
<path d="M0 0 C1.82421875 1.86328125 1.82421875 1.86328125 3.6875 4.3125 C4.31011719 5.11300781 4.93273437 5.91351563 5.57421875 6.73828125 C7 9 7 9 7 12 C3.62902617 13.49821059 1.79557881 14 -2 14 C-6.85308057 6.26540284 -6.85308057 6.26540284 -6 2 C-3 0 -3 0 0 0 Z " fill="#CC8131" transform="translate(375,97)"/>
<path d="M0 0 C2.625 0.375 2.625 0.375 4.9375 2.0625 C6.625 4.375 6.625 4.375 7.125 6.875 C6.45686557 10.21567217 5.39839233 11.42612972 2.625 13.375 C-0.76654295 13.21349795 -1.95796757 12.79203243 -4.375 10.375 C-4.640625 8.5 -4.640625 8.5 -4.625 6.375 C-4.63015625 5.67375 -4.6353125 4.9725 -4.640625 4.25 C-4.20828321 1.19817563 -2.93417303 0.46329048 0 0 Z " fill="#CB8032" transform="translate(623.375,96.625)"/>
<path d="M0 0 C2.13586678 3.20380017 2.23132175 4.01939967 2.125 7.6875 C2.10695313 8.49574219 2.08890625 9.30398437 2.0703125 10.13671875 C2.03550781 11.05904297 2.03550781 11.05904297 2 12 C0.02 12.66 -1.96 13.32 -4 14 C-3.00956295 9.16371695 -2.04301154 4.52381127 0 0 Z " fill="#D1612F" transform="translate(729,25)"/>
<path d="M0 0 C0 3.63 0 7.26 0 11 C-3.42298577 9.85900474 -4.14758766 8.99914379 -6 6 C-6 5.01 -6 4.02 -6 3 C-2.66666667 0 -2.66666667 0 0 0 Z " fill="#D05F32" transform="translate(760,61)"/>
<path d="M0 0 C1.7074998 1.28062485 3.37373596 2.61767557 5 4 C5 4.66 5 5.32 5 6 C5.66 6 6.32 6 7 6 C8.38226016 8.76452033 8.09525387 11.0461363 8.0625 14.125 C8.05347656 15.22070312 8.04445313 16.31640625 8.03515625 17.4453125 C8.02355469 18.28835937 8.01195312 19.13140625 8 20 C6.68834193 17.51218573 5.85258316 15.44192196 5.125 12.6875 C4.22810978 9.74769316 3.40197568 7.76830397 1.875 5.1875 C0 2 0 2 0 0 Z " fill="#F5B016" transform="translate(446,93)"/>
<path d="M0 0 C0.66 0 1.32 0 2 0 C2.625 2.875 2.625 2.875 3 6 C2.34 6.66 1.68 7.32 1 8 C0.01 8 -0.98 8 -2 8 C-2.20086443 4.28400809 -2.1519437 3.22791555 0 0 Z " fill="#CE5B32" transform="translate(769,91)"/>
<path d="M0 0 C0.66 0 1.32 0 2 0 C0 4 0 4 -1.0625 5.75 C-2.45980692 9.10353662 -2.63903303 12.39033025 -3 16 C-3.33 16 -3.66 16 -4 16 C-4.68837568 6.32449735 -4.68837568 6.32449735 -2.125 2.375 C-1.42375 1.59125 -0.7225 0.8075 0 0 Z " fill="#D4662D" transform="translate(755,73)"/>
</svg>
